<?xml version="1.0" encoding="UTF-8" standalone="no"?>
<!DOCTYPE svg PUBLIC "-//W3C//DTD SVG 1.1//EN" "http://www.w3.org/Graphics/SVG/1.1/DTD/svg11.dtd">
<svg width="100%" height="100%" viewBox="0 0 759 736" version="1.1" xmlns="http://www.w3.org/2000/svg" xmlns:xlink="http://www.w3.org/1999/xlink" xml:space="preserve" xmlns:serif="http://www.serif.com/" style="fill-rule:evenodd;clip-rule:evenodd;stroke-linejoin:round;stroke-miterlimit:2;">
    <g transform="matrix(4.16667,0,0,4.16667,-74.1989,-238.597)">
        <path d="M77.942,233.833C42.894,221.193 17.808,187.619 17.808,148.232C17.808,98.025 58.569,57.263 108.776,57.263C158.983,57.263 199.745,98.025 199.745,148.232C199.745,187.624 174.652,221.202 139.599,233.837C148.981,228.189 154.042,219.435 154.042,219.435C165.372,203.255 152.934,169.732 152.934,169.732C149.949,155.803 143.847,147.438 137.518,142.414C140.736,129.876 144.872,108.73 141.952,91.073C141.952,91.073 140.579,74.893 128.273,77.451C128.273,77.451 120.151,78.759 117.918,97.067C117.918,97.067 114.815,115.936 114.385,134.519C109.135,134.22 100.33,134.877 100.33,134.877C100.33,134.877 100.092,134.87 99.655,134.886C99.26,116.183 96.119,97.067 96.119,97.067C93.882,78.759 85.76,77.451 85.76,77.451C73.454,74.893 72.078,91.073 72.078,91.073C68.953,109.978 73.917,132.884 77.181,144.938C71.927,150.102 67.151,157.915 64.618,169.732C64.618,169.732 52.181,203.255 63.51,219.435C63.51,219.435 68.565,228.185 77.942,233.833Z" style="fill:white;"/>
    </g>
</svg>
