<?xml version="1.0" encoding="UTF-8" standalone="no"?>
<!DOCTYPE svg PUBLIC "-//W3C//DTD SVG 1.1//EN" "http://www.w3.org/Graphics/SVG/1.1/DTD/svg11.dtd">
<svg width="100%" height="100%" viewBox="0 0 1197 285" version="1.1" xmlns="http://www.w3.org/2000/svg" xmlns:xlink="http://www.w3.org/1999/xlink" xml:space="preserve" xmlns:serif="http://www.serif.com/" style="fill-rule:evenodd;clip-rule:evenodd;stroke-linejoin:round;stroke-miterlimit:2;">
    <g transform="matrix(4.16667,0,0,4.16667,3.53453e-14,-2.07242e-13)">
        <g transform="matrix(4.16667,0,0,4.16667,-92.6377,-711.585)">
            <g transform="matrix(1,0,0,1,46.5879,174.743)">
                <path d="M0,5.377C0.039,5.398 0.062,5.417 0.088,5.424C0.256,5.468 0.406,5.412 0.55,5.33C0.642,5.278 0.643,5.266 0.582,5.146C0.377,5.18 0.168,5.201 0,5.377M1.016,-3.963C1.039,-3.951 1.059,-3.936 1.082,-3.928C1.308,-3.844 1.418,-3.674 1.435,-3.44C1.451,-3.219 1.459,-2.995 1.465,-2.772C1.487,-2.059 1.508,-1.343 1.528,-0.628C1.543,-0.097 1.555,0.436 1.571,0.969C1.594,1.684 1.623,2.397 1.646,3.112C1.655,3.427 1.654,3.741 1.664,4.056C1.666,4.113 1.676,4.183 1.711,4.223C1.775,4.298 1.87,4.282 1.945,4.191C2.113,3.988 2.289,3.789 2.441,3.574C2.941,2.864 3.392,2.123 3.713,1.312C3.879,0.892 4.014,0.461 4.101,0.018C4.134,-0.151 4.19,-0.305 4.34,-0.409C4.609,-0.598 4.987,-0.456 5.065,-0.136C5.109,0.042 5.074,0.218 5.049,0.393C4.923,1.301 4.59,2.135 4.133,2.922C3.764,3.56 3.377,4.185 2.89,4.741C2.871,4.765 2.855,4.79 2.828,4.828C2.877,4.87 2.92,4.909 2.967,4.946C3.421,5.313 3.873,5.682 4.269,6.112C4.393,6.247 4.513,6.386 4.622,6.531C5.024,7.075 5.389,7.643 5.667,8.26C5.717,8.37 5.76,8.487 5.783,8.606C5.857,8.977 5.613,9.288 5.261,9.284C5.038,9.28 4.854,9.141 4.759,8.903C4.472,8.192 4.082,7.541 3.58,6.961C3.156,6.471 2.66,6.061 2.14,5.679C2.115,5.661 2.088,5.648 2.051,5.626C1.973,5.689 1.891,5.748 1.818,5.817C1.745,5.886 1.711,5.973 1.715,6.077C1.739,6.772 1.762,7.466 1.783,8.16C1.789,8.358 1.799,8.556 1.795,8.753C1.789,9.049 1.629,9.238 1.354,9.288C1.068,9.34 0.793,9.159 0.75,8.868C0.719,8.649 0.714,8.425 0.705,8.202C0.687,7.66 0.672,7.117 0.655,6.575C0.654,6.541 0.645,6.508 0.637,6.456C0.547,6.467 0.463,6.477 0.38,6.489C-0.033,6.552 -0.406,6.452 -0.737,6.201C-1.192,5.857 -1.277,5.273 -0.943,4.811C-0.66,4.42 -0.264,4.213 0.197,4.114C0.277,4.098 0.358,4.091 0.439,4.082C0.574,4.065 0.594,4.045 0.588,3.908C0.57,3.477 0.549,3.046 0.535,2.615C0.518,2.023 0.51,1.43 0.49,0.836C0.471,0.188 0.441,-0.461 0.418,-1.11C0.408,-1.384 0.408,-1.657 0.4,-1.932C0.387,-2.377 0.369,-2.823 0.354,-3.269C0.353,-3.346 0.354,-3.422 0.365,-3.496C0.396,-3.703 0.508,-3.851 0.707,-3.927C0.729,-3.936 0.75,-3.951 0.772,-3.963L1.016,-3.963Z" style="fill:rgb(170,30,34);"/>
            </g>
            <g transform="matrix(1,0,0,1,43.9248,184.276)">
                <path d="M0,-5.983C0,-6.035 0.003,-6.086 0,-6.135C-0.035,-6.596 -0.125,-7.034 -0.521,-7.337C-0.524,-7.34 -0.528,-7.344 -0.531,-7.348C-0.833,-7.661 -1.213,-7.77 -1.617,-7.665C-2.306,-7.483 -2.834,-7.083 -3.086,-6.392C-3.206,-6.064 -3.301,-5.726 -3.389,-5.388C-3.553,-4.757 -3.586,-4.107 -3.649,-3.461C-3.66,-3.341 -3.629,-3.307 -3.501,-3.27C-3.155,-3.172 -2.801,-3.166 -2.447,-3.212C-1.949,-3.276 -1.5,-3.468 -1.078,-3.732C-0.782,-3.918 -0.549,-4.158 -0.385,-4.464C-0.132,-4.938 -0.019,-5.45 0,-5.983M-4.362,2.92C-4.379,2.912 -4.395,2.897 -4.414,2.891C-4.674,2.804 -4.816,2.618 -4.838,2.352C-4.869,1.974 -4.892,1.593 -4.897,1.213C-4.906,0.534 -4.906,-0.146 -4.897,-0.826C-4.89,-1.464 -4.864,-2.104 -4.85,-2.742C-4.838,-3.34 -4.851,-3.939 -4.89,-4.538C-4.899,-4.689 -4.9,-4.84 -4.904,-4.993C-4.928,-5.829 -4.953,-6.665 -4.979,-7.499C-4.981,-7.611 -4.991,-7.722 -4.993,-7.834C-4.994,-7.985 -4.949,-8.124 -4.849,-8.24C-4.604,-8.527 -4.165,-8.461 -4.033,-8.108C-3.981,-7.973 -3.967,-7.823 -3.94,-7.679C-3.921,-7.576 -3.909,-7.472 -3.889,-7.337C-3.842,-7.394 -3.813,-7.425 -3.787,-7.46C-3.442,-7.915 -3.033,-8.295 -2.506,-8.532C-1.93,-8.792 -1.329,-8.903 -0.714,-8.715C0.164,-8.448 0.726,-7.843 0.985,-6.974C1.203,-6.251 1.153,-5.52 0.948,-4.798C0.858,-4.481 0.743,-4.172 0.578,-3.885C0.269,-3.346 -0.173,-2.942 -0.71,-2.642C-1.435,-2.237 -2.211,-2.037 -3.044,-2.083C-3.201,-2.092 -3.357,-2.115 -3.514,-2.13C-3.568,-2.135 -3.621,-2.137 -3.68,-2.142C-3.74,-1.961 -3.712,-1.788 -3.714,-1.618C-3.719,-1.319 -3.716,-1.02 -3.717,-0.72C-3.719,-0.108 -3.724,0.506 -3.725,1.121C-3.725,1.505 -3.719,1.891 -3.716,2.277C-3.714,2.578 -3.887,2.852 -4.186,2.903C-4.194,2.904 -4.202,2.914 -4.209,2.92L-4.362,2.92Z" style="fill:rgb(170,30,34);"/>
            </g>
            <g transform="matrix(1,0,0,1,27.2251,184.276)">
                <path d="M0,-5.983C0,-6.035 0.003,-6.086 0,-6.135C-0.035,-6.596 -0.125,-7.034 -0.521,-7.337C-0.524,-7.34 -0.528,-7.344 -0.531,-7.348C-0.833,-7.661 -1.213,-7.77 -1.617,-7.665C-2.306,-7.483 -2.834,-7.083 -3.086,-6.392C-3.205,-6.064 -3.301,-5.726 -3.389,-5.388C-3.553,-4.757 -3.586,-4.107 -3.649,-3.461C-3.66,-3.341 -3.629,-3.307 -3.501,-3.27C-3.154,-3.172 -2.801,-3.166 -2.446,-3.212C-1.949,-3.276 -1.5,-3.468 -1.078,-3.732C-0.782,-3.918 -0.549,-4.158 -0.385,-4.464C-0.131,-4.938 -0.018,-5.45 0,-5.983M-4.362,2.92C-4.379,2.912 -4.395,2.897 -4.414,2.891C-4.674,2.804 -4.816,2.618 -4.838,2.352C-4.868,1.974 -4.891,1.593 -4.897,1.213C-4.906,0.534 -4.906,-0.146 -4.897,-0.826C-4.89,-1.464 -4.864,-2.104 -4.85,-2.742C-4.838,-3.34 -4.851,-3.939 -4.89,-4.538C-4.899,-4.689 -4.9,-4.84 -4.904,-4.993C-4.928,-5.829 -4.953,-6.665 -4.979,-7.499C-4.981,-7.611 -4.991,-7.722 -4.992,-7.834C-4.994,-7.985 -4.949,-8.124 -4.849,-8.24C-4.604,-8.527 -4.165,-8.461 -4.033,-8.108C-3.981,-7.973 -3.967,-7.823 -3.94,-7.679C-3.921,-7.576 -3.909,-7.472 -3.889,-7.337C-3.842,-7.394 -3.813,-7.425 -3.787,-7.46C-3.442,-7.915 -3.033,-8.295 -2.506,-8.532C-1.93,-8.792 -1.329,-8.903 -0.714,-8.715C0.164,-8.448 0.725,-7.843 0.986,-6.974C1.203,-6.251 1.153,-5.52 0.948,-4.798C0.858,-4.481 0.743,-4.172 0.578,-3.885C0.269,-3.346 -0.173,-2.942 -0.71,-2.642C-1.435,-2.237 -2.211,-2.037 -3.044,-2.083C-3.201,-2.092 -3.357,-2.115 -3.514,-2.13C-3.567,-2.135 -3.621,-2.137 -3.679,-2.142C-3.74,-1.961 -3.712,-1.788 -3.714,-1.618C-3.719,-1.319 -3.716,-1.02 -3.717,-0.72C-3.719,-0.108 -3.724,0.506 -3.725,1.121C-3.725,1.505 -3.719,1.891 -3.716,2.277C-3.714,2.578 -3.887,2.852 -4.186,2.903C-4.194,2.904 -4.202,2.914 -4.209,2.92L-4.362,2.92Z" style="fill:rgb(170,30,34);"/>
            </g>
            <g transform="matrix(1,0,0,1,91.1572,174.756)">
                <path d="M0,6.196C-0.014,6.244 -0.029,6.291 -0.04,6.339C-0.142,6.757 -0.24,7.176 -0.4,7.579C-0.768,8.496 -1.451,9.04 -2.402,9.25C-2.972,9.377 -3.485,9.213 -3.951,8.876C-4.338,8.595 -4.622,8.231 -4.821,7.8C-5.16,7.065 -5.385,6.3 -5.449,5.492C-5.483,5.068 -5.5,4.642 -5.504,4.217C-5.511,3.481 -5.505,2.744 -5.501,2.009C-5.5,1.822 -5.481,1.634 -5.478,1.447C-5.474,1.263 -5.519,1.217 -5.701,1.229C-6.021,1.248 -6.337,1.283 -6.657,1.3C-6.832,1.31 -7.012,1.314 -7.186,1.289C-7.433,1.255 -7.594,1.082 -7.636,0.853C-7.682,0.602 -7.581,0.369 -7.369,0.237C-7.235,0.154 -7.086,0.127 -6.934,0.115C-6.494,0.081 -6.054,0.051 -5.613,0.019C-5.419,0.006 -5.37,-0.044 -5.354,-0.243C-5.294,-1.047 -5.185,-1.846 -5.023,-2.637C-4.987,-2.814 -4.908,-2.96 -4.756,-3.063C-4.594,-3.171 -4.425,-3.181 -4.251,-3.092C-4.074,-3.003 -3.965,-2.863 -3.969,-2.659C-3.974,-2.421 -3.988,-2.184 -4.008,-1.946C-4.05,-1.42 -4.097,-0.895 -4.142,-0.37C-4.144,-0.35 -4.144,-0.329 -4.144,-0.309C-4.144,-0.134 -4.104,-0.093 -3.925,-0.106C-3.495,-0.138 -3.066,-0.173 -2.637,-0.211C-2.487,-0.224 -2.343,-0.222 -2.202,-0.166C-1.953,-0.067 -1.82,0.119 -1.811,0.38C-1.803,0.598 -1.971,0.832 -2.193,0.92C-2.277,0.952 -2.369,0.973 -2.459,0.981C-2.97,1.023 -3.479,1.062 -3.991,1.099C-4.233,1.118 -4.253,1.14 -4.271,1.378C-4.323,2.051 -4.326,2.726 -4.318,3.4C-4.312,3.913 -4.312,4.425 -4.294,4.936C-4.266,5.794 -4.075,6.613 -3.69,7.383C-3.569,7.627 -3.399,7.823 -3.165,7.96C-2.954,8.084 -2.735,8.115 -2.494,8.038C-2.03,7.888 -1.701,7.603 -1.518,7.147C-1.384,6.811 -1.303,6.461 -1.216,6.112C-1.187,5.995 -1.16,5.875 -1.116,5.761C-1.028,5.548 -0.866,5.422 -0.63,5.403C-0.396,5.384 -0.215,5.477 -0.087,5.671C-0.05,5.728 -0.028,5.798 0,5.861L0,6.196Z" style="fill:rgb(170,30,34);"/>
            </g>
            <g transform="matrix(1,0,0,1,79.1143,178.845)">
                <path d="M0,1.658C0.412,1.659 0.722,1.35 0.721,0.938C0.72,0.539 0.406,0.223 0.008,0.221C-0.394,0.221 -0.718,0.545 -0.716,0.946C-0.714,1.345 -0.399,1.657 0,1.658M0.813,4.216C0.765,4.287 0.727,4.339 0.694,4.393C0.544,4.644 0.366,4.869 0.123,5.039C-0.388,5.393 -1.076,5.348 -1.518,4.93C-1.725,4.735 -1.84,4.49 -1.896,4.216C-1.909,4.156 -1.919,4.096 -1.938,4.039C-1.978,3.921 -2.021,3.897 -2.144,3.918C-2.385,3.958 -2.631,3.986 -2.871,3.941C-3.454,3.835 -3.87,3.497 -4.123,2.96C-4.229,2.735 -4.28,2.498 -4.24,2.251C-4.191,1.952 -4.098,1.669 -3.929,1.415C-3.912,1.39 -3.897,1.363 -3.879,1.34C-3.837,1.281 -3.839,1.227 -3.885,1.173C-3.925,1.126 -3.961,1.078 -3.998,1.03C-4.204,0.762 -4.335,0.462 -4.356,0.123C-4.377,-0.168 -4.302,-0.441 -4.159,-0.693C-3.899,-1.155 -3.544,-1.497 -2.996,-1.587C-2.941,-1.596 -2.886,-1.598 -2.83,-1.604C-2.701,-1.619 -2.669,-1.66 -2.668,-1.792C-2.665,-1.954 -2.677,-2.119 -2.647,-2.277C-2.467,-3.23 -1.539,-3.735 -0.627,-3.387C-0.404,-3.303 -0.216,-3.169 -0.057,-2.993C0.14,-2.774 0.167,-2.838 0.307,-2.993C0.403,-3.1 0.523,-3.195 0.65,-3.265C1.064,-3.493 1.517,-3.41 1.84,-3.063C2.01,-2.878 2.112,-2.66 2.167,-2.418C2.176,-2.374 2.184,-2.328 2.194,-2.284C2.235,-2.113 2.27,-2.088 2.45,-2.111C2.86,-2.159 3.227,-2.061 3.538,-1.787C3.758,-1.594 3.878,-1.347 3.901,-1.056C3.922,-0.794 3.884,-0.54 3.775,-0.297C3.679,-0.078 3.679,-0.073 3.871,0.059C4.273,0.337 4.467,0.738 4.512,1.203C4.558,1.674 4.317,2.032 3.962,2.313C3.845,2.405 3.697,2.458 3.562,2.526C3.512,2.552 3.457,2.564 3.405,2.586C3.335,2.613 3.303,2.664 3.319,2.741C3.336,2.81 3.351,2.88 3.366,2.949C3.443,3.302 3.396,3.634 3.199,3.941C2.985,4.279 2.689,4.522 2.315,4.655C1.824,4.829 1.389,4.694 0.998,4.371C0.945,4.327 0.891,4.281 0.813,4.216" style="fill:rgb(170,30,34);"/>
            </g>
            <g transform="matrix(1,0,0,1,33.4302,179.142)">
                <path d="M0,1.361C0.412,1.362 0.72,1.052 0.719,0.641C0.718,0.242 0.404,-0.074 0.006,-0.076C-0.395,-0.076 -0.719,0.249 -0.717,0.65C-0.715,1.048 -0.4,1.36 0,1.361M-1.143,-3.771C-0.642,-3.755 -0.243,-3.61 0.065,-3.259C0.075,-3.248 0.084,-3.237 0.095,-3.225C0.232,-3.087 0.264,-3.087 0.394,-3.24C0.507,-3.372 0.64,-3.482 0.797,-3.558C1.19,-3.747 1.591,-3.685 1.906,-3.384C2.108,-3.193 2.231,-2.956 2.282,-2.685C2.353,-2.309 2.396,-2.377 2.667,-2.39C2.861,-2.4 3.051,-2.382 3.235,-2.313C3.795,-2.104 4.09,-1.608 4.013,-1.015C3.989,-0.837 3.935,-0.67 3.863,-0.507C3.803,-0.371 3.808,-0.334 3.934,-0.254C4.346,0.007 4.543,0.402 4.623,0.862C4.645,0.984 4.64,1.12 4.608,1.238C4.483,1.714 4.192,2.053 3.728,2.234C3.666,2.258 3.603,2.276 3.542,2.301C3.441,2.344 3.42,2.382 3.442,2.49C3.457,2.57 3.48,2.648 3.494,2.728C3.542,2.994 3.525,3.256 3.406,3.502C3.186,3.953 2.83,4.258 2.353,4.407C1.963,4.528 1.601,4.433 1.267,4.213C1.208,4.174 1.153,4.129 1.099,4.083C0.92,3.929 0.921,3.928 0.806,4.126C0.697,4.31 0.567,4.478 0.412,4.626C-0.064,5.075 -0.766,5.132 -1.279,4.758C-1.555,4.558 -1.709,4.28 -1.778,3.95C-1.793,3.882 -1.807,3.811 -1.832,3.744C-1.866,3.649 -1.908,3.631 -2.005,3.637C-2.212,3.651 -2.419,3.665 -2.627,3.675C-2.792,3.683 -2.948,3.642 -3.098,3.574C-3.607,3.34 -3.952,2.967 -4.1,2.421C-4.145,2.256 -4.146,2.089 -4.115,1.923C-4.061,1.632 -3.959,1.356 -3.792,1.109C-3.706,0.981 -3.713,0.979 -3.801,0.855C-3.9,0.715 -4.005,0.578 -4.083,0.424C-4.281,0.032 -4.302,-0.376 -4.128,-0.782C-3.894,-1.326 -3.526,-1.729 -2.917,-1.855C-2.867,-1.865 -2.817,-1.868 -2.766,-1.872C-2.572,-1.889 -2.553,-1.925 -2.552,-2.121C-2.552,-2.302 -2.552,-2.491 -2.504,-2.662C-2.348,-3.231 -1.98,-3.6 -1.4,-3.741C-1.302,-3.764 -1.199,-3.765 -1.143,-3.771" style="fill:rgb(170,30,34);"/>
            </g>
            <g transform="matrix(1,0,0,1,72.0059,174.94)">
                <path d="M0,6.351L-0.01,6.351C-0.018,5.844 -0.027,5.337 -0.035,4.83C-0.037,4.704 -0.089,4.614 -0.19,4.536C-0.611,4.212 -1.082,4.06 -1.61,4.088C-2.179,4.117 -2.699,4.279 -3.13,4.664C-3.535,5.028 -3.78,5.489 -3.911,6.013C-3.957,6.196 -3.976,6.381 -3.957,6.572C-3.909,7.037 -3.694,7.419 -3.376,7.748C-3.15,7.981 -2.871,8.099 -2.547,8.115C-1.941,8.145 -1.378,8.001 -0.873,7.665C-0.641,7.512 -0.427,7.33 -0.201,7.166C-0.06,7.066 -0.002,6.93 0,6.762L0,6.351ZM1.216,7.379C1.216,7.583 1.214,7.786 1.217,7.989C1.222,8.339 1.237,8.689 1.234,9.039C1.23,9.412 0.911,9.683 0.543,9.636C0.311,9.607 0.115,9.44 0.063,9.208C0.038,9.095 0.035,8.977 0.026,8.861C0.021,8.795 0.03,8.729 0.027,8.664C0.022,8.564 -0.021,8.54 -0.11,8.594C-0.224,8.664 -0.33,8.742 -0.445,8.806C-0.969,9.102 -1.531,9.273 -2.134,9.31C-2.44,9.329 -2.743,9.315 -3.042,9.253C-3.527,9.15 -3.94,8.91 -4.279,8.548C-4.893,7.893 -5.217,7.12 -5.173,6.214C-5.161,5.981 -5.093,5.745 -5.024,5.518C-4.771,4.692 -4.309,4.01 -3.591,3.516C-3.021,3.124 -2.391,2.907 -1.695,2.902C-1.229,2.898 -0.776,2.976 -0.346,3.163C-0.108,3.265 -0.071,3.239 -0.074,2.984C-0.083,2.293 -0.094,1.604 -0.104,0.914C-0.113,0.361 -0.123,-0.192 -0.136,-0.744C-0.148,-1.352 -0.165,-1.961 -0.176,-2.569C-0.178,-2.66 -0.169,-2.753 -0.15,-2.841C-0.08,-3.17 0.152,-3.332 0.443,-3.323C0.764,-3.313 1,-3.082 1.022,-2.767C1.037,-2.56 1.045,-2.351 1.049,-2.144C1.056,-1.662 1.06,-1.18 1.067,-0.698C1.075,-0.106 1.087,0.489 1.097,1.081C1.107,1.777 1.116,2.472 1.128,3.165C1.136,3.683 1.147,4.201 1.158,4.717C1.168,5.19 1.178,5.662 1.187,6.133C1.196,6.548 1.205,6.964 1.213,7.379L1.216,7.379Z" style="fill:rgb(170,30,34);"/>
            </g>
            <g transform="matrix(1,0,0,1,64.2168,178.155)">
                <path d="M0,0.885C-0.009,0.74 -0.015,0.625 -0.026,0.511C-0.06,0.156 -0.093,-0.197 -0.133,-0.55C-0.18,-0.978 -0.22,-1.407 -0.288,-1.833C-0.36,-2.29 -0.487,-2.734 -0.7,-3.148C-0.861,-3.465 -1.082,-3.734 -1.367,-3.947C-1.566,-4.095 -1.772,-4.108 -1.974,-3.967C-2.102,-3.877 -2.226,-3.776 -2.33,-3.661C-2.719,-3.231 -2.959,-2.719 -3.12,-2.168C-3.427,-1.129 -3.538,-0.061 -3.587,1.015C-3.589,1.069 -3.58,1.123 -3.574,1.201C-2.38,1.104 -1.202,0.98 0,0.885M-3.577,2.206C-3.577,2.277 -3.581,2.342 -3.576,2.406C-3.532,3.1 -3.452,3.789 -3.352,4.478C-3.31,4.769 -3.264,5.059 -3.223,5.351C-3.213,5.41 -3.213,5.471 -3.214,5.532C-3.217,5.758 -3.347,5.917 -3.554,5.956C-3.764,5.997 -3.969,5.897 -4.052,5.696C-4.099,5.58 -4.132,5.455 -4.158,5.332C-4.244,4.925 -4.336,4.52 -4.402,4.11C-4.457,3.765 -4.483,3.415 -4.515,3.066C-4.54,2.789 -4.55,2.51 -4.575,2.233C-4.581,2.164 -4.604,2.092 -4.64,2.033C-4.757,1.852 -4.757,1.677 -4.647,1.491C-4.606,1.419 -4.583,1.33 -4.577,1.248C-4.542,0.757 -4.53,0.264 -4.481,-0.225C-4.387,-1.171 -4.239,-2.107 -3.88,-2.995C-3.658,-3.539 -3.366,-4.044 -2.94,-4.458C-2.693,-4.698 -2.417,-4.891 -2.083,-4.991C-1.675,-5.112 -1.29,-5.058 -0.928,-4.838C-0.542,-4.603 -0.249,-4.278 -0.004,-3.905C0.312,-3.427 0.491,-2.897 0.618,-2.344C0.73,-1.86 0.791,-1.367 0.836,-0.872C0.861,-0.594 0.903,-0.318 0.928,-0.04C0.954,0.241 0.969,0.526 0.985,0.809C0.991,0.916 0.998,1.012 1.097,1.092C1.201,1.175 1.203,1.376 1.112,1.481C1.056,1.545 1.043,1.608 1.044,1.687C1.049,2.118 1.046,2.55 1.052,2.982C1.062,3.742 1.076,4.504 1.089,5.265C1.09,5.32 1.09,5.376 1.084,5.432C1.061,5.688 0.847,5.891 0.602,5.893C0.366,5.895 0.141,5.7 0.113,5.454C0.093,5.283 0.094,5.11 0.089,4.938C0.078,4.472 0.061,4.005 0.062,3.538C0.062,3.103 0.085,2.666 0.098,2.231C0.1,2.12 0.098,2.011 0.098,1.906C-0.062,1.866 -3.161,2.122 -3.577,2.206" style="fill:rgb(170,30,34);"/>
            </g>
            <g transform="matrix(1,0,0,1,55.1758,172.122)">
                <path d="M0,11.032C0.072,11.039 0.127,11.051 0.18,11.047C0.803,11.005 1.425,10.958 2.047,10.919C2.166,10.911 2.291,10.913 2.408,10.94C2.645,10.999 2.785,11.203 2.781,11.449C2.777,11.687 2.633,11.878 2.395,11.931C2.248,11.965 2.096,11.974 1.943,11.987C1.569,12.021 1.195,12.05 0.822,12.083C0.555,12.107 0.287,12.139 0.02,12.162C-0.106,12.174 -0.233,12.179 -0.359,12.176C-0.65,12.164 -0.91,11.941 -0.984,11.638C-1.008,11.546 -1.016,11.448 -1.018,11.352C-1.021,9.998 -1.019,8.642 -1.023,7.289C-1.027,6.334 -1.041,5.381 -1.049,4.428C-1.053,3.813 -1.058,3.2 -1.062,2.587C-1.066,1.572 -1.072,0.557 -1.076,-0.457C-1.078,-0.538 -1.062,-0.619 -1.049,-0.698C-1.005,-0.953 -0.787,-1.146 -0.545,-1.146C-0.296,-1.147 -0.063,-0.953 -0.027,-0.695C-0.007,-0.545 -0.014,-0.392 -0.014,-0.24C-0.014,0.028 -0.02,0.298 -0.02,0.566C-0.021,1.524 -0.021,2.484 -0.02,3.443C-0.014,5.914 -0.007,8.385 0,10.854L0,11.032Z" style="fill:rgb(170,30,34);"/>
            </g>
        </g>
    </g>
</svg>
